Patient4_TMGait_0pt2_03_left_12_GRF.mot
version=1
nRows=45
nColumns=19
inDegrees=no
endheader
time	F1x	F1y	F1z	M1x	M1y	M1z	F2x	F2y	F2z	M2x	M2y	M2z	EC1x	EC1y	EC1z	EC2x	EC2y	EC2z
24.48	-2.4191	-4.2937	-2.8838	0.89906	1.6015	-0.65032	0.70341	706.1781	-43.377	233.4647	48.1845	717.0371	-0.0592	0.0182	-0.0073	-0.0462	0.0165	0.9585
24.5024	-1.8105	-2.3952	-1.8453	0.3968	0.89051	0.15692	-1.9875	713.1044	-43.3714	235.6055	48.6782	722.5574	-0.0592	0.0182	-0.0073	-0.0462	0.0165	0.9585
24.5249	-1.2904	-0.76931	-0.96263	-0.035127	0.29216	0.84199	-4.6845	726.3381	-43.3628	239.8982	49.0662	733.963	-0.0592	0.0182	-0.0073	-0.0462	0.0165	0.9585
24.5473	-0.89227	0.48673	-0.28833	-0.37026	-0.16072	1.3615	-7.2114	747.0961	-43.2292	246.7835	49.1986	752.4546	-0.0592	0.0182	-0.0073	-0.0462	0.0165	0.9585
24.5697	-0.61957	1.373	0.17806	-0.60869	-0.47165	1.725	-9.485	775.2389	-42.8432	256.2371	48.9543	777.9232	-0.0592	0.0182	-0.0073	-0.0462	0.0165	0.9585
24.5921	-0.45644	1.9438	0.46545	-0.76558	-0.66238	1.9646	-11.463	808.8353	-42.126	267.615	48.2631	808.5302	-0.0592	0.0182	-0.0073	-0.0462	0.0165	0.9585
24.6146	-0.38028	2.2754	0.6137	-0.86083	-0.76121	2.1155	-13.0875	844.2313	-41.0913	279.6663	47.1226	840.7833	-0.0592	0.0182	-0.0073	-0.0462	0.0165	0.9585
24.637	-0.36644	2.4413	0.66744	-0.91321	-0.79936	2.2068	-14.3028	876.6796	-39.8465	290.7429	45.6155	870.1555	-0.0592	0.0182	-0.0073	-0.0462	0.0165	0.9585
24.6594	-0.39467	2.4999	0.66486	-0.936	-0.80404	2.2537	-15.0892	901.3772	-38.5565	299.1612	43.89	892.0882	-0.0592	0.0182	-0.0073	-0.0462	0.0165	0.9585
24.6819	-0.44974	2.4819	0.63276	-0.93438	-0.79471	2.251	-15.428	914.5785	-37.3843	303.5986	42.0968	903.0352	-0.0592	0.0182	-0.0073	-0.0462	0.0165	0.9585
24.7043	-0.51802	2.3887	0.59041	-0.90526	-0.78293	2.1758	-15.2589	914.3984	-36.4404	303.3858	40.3308	901.2034	-0.0592	0.0182	-0.0073	-0.0462	0.0165	0.9585
24.7267	-0.58717	2.2024	0.54831	-0.83958	-0.77253	1.9941	-14.5203	901.1051	-35.7653	298.6163	38.6302	886.8398	-0.0592	0.0182	-0.0073	-0.0462	0.0165	0.9585
24.7491	-0.64729	1.8886	0.50906	-0.72508	-0.76164	1.6634	-13.2186	876.8972	-35.3425	290.0666	37.0145	862.0305	-0.0592	0.0182	-0.0073	-0.0462	0.0165	0.9585
24.7716	-0.68793	1.3999	0.46893	-0.54513	-0.74129	1.1269	-11.409	845.3407	-35.1258	278.9975	35.5012	830.136	-0.0592	0.0182	-0.0073	-0.0462	0.0165	0.9585
24.794	-0.69221	0.68826	0.42058	-0.28208	-0.6968	0.33091	-9.1488	810.648	-35.0631	266.9006	34.105	795.0817	-0.0592	0.0182	-0.0073	-0.0462	0.0165	0.9585
24.8164	-0.63343	-0.27031	0.35616	0.075562	-0.60968	-0.74651	-6.4802	776.9518	-35.0956	255.2409	32.8186	760.6746	-0.0592	0.0182	-0.0073	-0.0462	0.0165	0.9585
24.8389	-0.4795	-1.4478	0.2689	0.52116	-0.46193	-2.0651	-3.433	747.6738	-35.1695	245.2298	31.6142	730.0296	-0.0592	0.0182	-0.0073	-0.0462	0.0165	0.9585
24.8613	-0.1959	-2.7345	0.15527	1.0179	-0.23915	-3.4872	-0.00070832	725.1582	-35.2491	237.6918	30.4451	705.2338	-0.0592	0.0182	-0.0073	-0.0462	0.0165	0.9585
24.8837	0.24784	-3.8954	0.017805	1.4828	0.064893	-4.7268	3.8682	710.5576	-35.3257	233.0216	29.2567	687.2727	-0.0592	0.0182	-0.0073	-0.0462	0.0165	0.9585
24.9061	0.87171	-4.5247	-0.12952	1.7692	0.43856	-5.299	8.1943	703.8544	-35.441	231.1924	28.037	676.0938	-0.0592	0.0182	-0.0073	-0.0462	0.0165	0.9585
24.9286	1.6692	-4.0046	-0.2596	1.6506	0.84421	-4.4793	12.9026	703.9858	-35.6876	231.8019	26.8477	670.7571	-0.0592	0.0182	-0.0073	-0.0462	0.0165	0.9585
24.951	2.5764	-1.4871	-0.33149	0.81238	1.2082	-1.2916	17.8248	709.0528	-36.1661	234.1513	25.7921	669.6399	-0.0592	0.0182	-0.0073	-0.0462	0.0165	0.9585
24.9734	3.445	4.085	-0.28338	-1.1418	1.4078	5.4596	22.7048	716.5439	-36.9322	237.3292	24.9699	670.6446	-0.0592	0.0182	-0.0073	-0.0462	0.0165	0.9585
24.9959	4.0159	13.8809	-0.026029	-4.6594	1.2563	17.0681	27.1994	723.5352	-37.9814	240.288	24.4647	671.3781	-0.0592	0.0182	-0.0073	-0.0462	0.0165	0.9585
25.0183	3.9789	29.0646	0.603	-10.1929	0.45896	34.7894	30.9139	727.0033	-39.2361	241.9593	24.3288	669.3977	-0.0592	0.0182	-0.0073	-0.0462	0.0165	0.9585
25.0407	3.0671	50.5472	1.8359	-18.1046	-1.3509	59.5518	33.4595	724.2595	-40.5328	241.4117	24.5562	662.5621	-0.0592	0.0182	-0.0073	-0.0462	0.0165	0.9585
25.0631	1.2172	78.6167	3.8281	-28.5289	-4.3718	91.5392	34.525	713.3589	-41.6357	237.9921	25.0677	649.3548	-0.0592	0.0182	-0.0073	-0.0462	0.0165	0.9585
25.0856	-1.3097	112.5947	6.592	-41.238	-8.5084	129.8213	33.9478	693.4416	-42.2772	231.4374	25.7136	629.1395	-0.0592	0.0182	-0.0073	-0.0462	0.0165	0.9585
25.108	-4.1078	150.646	10.0742	-55.5559	-13.5281	172.1927	31.7923	664.9229	-42.225	221.9277	26.3	602.2845	-0.0592	0.0182	-0.0073	-0.0462	0.0165	0.9585
25.1304	-6.7745	190.1396	14.0906	-70.4931	-19.0479	215.626	28.3958	629.4737	-41.3651	210.0665	26.6426	570.1322	-0.0592	0.0182	-0.0073	-0.0462	0.0165	0.9585
25.1529	-9.0548	229.2385	18.2975	-85.3523	-24.5726	258.0754	24.3191	589.7419	-39.7471	196.7761	26.6168	534.7871	-0.0592	0.0182	-0.0073	-0.0462	0.0165	0.9585
25.1753	-10.9315	267.6371	22.3288	-100.0076	-29.6902	299.278	20.1705	548.5816	-37.5419	183.0348	26.1772	498.4949	-0.0592	0.0182	-0.0073	-0.0462	0.0165	0.9585
25.1977	-12.5143	305.5232	25.9515	-114.5119	-34.1962	339.5397	16.4039	508.2304	-34.9546	169.6033	25.3436	462.9868	-0.0592	0.0182	-0.0073	-0.0462	0.0165	0.9585
25.2201	-13.891	342.7968	29.1047	-128.7998	-38.0703	378.8228	13.2443	469.9398	-32.1992	156.8984	24.2067	429.1943	-0.0592	0.0182	-0.0073	-0.0462	0.0165	0.9585
25.2426	-15.0846	378.9808	31.8423	-142.6613	-41.394	416.6343	10.7364	434.001	-29.4838	145.0066	22.9055	397.2736	-0.0592	0.0182	-0.0073	-0.0462	0.0165	0.9585
25.265	-16.0994	413.4704	34.2338	-155.8489	-44.2559	452.307	8.8399	399.9872	-26.9484	133.771	21.5502	366.8064	-0.0592	0.0182	-0.0073	-0.0462	0.0165	0.9585
25.2874	-16.9207	445.8669	36.2957	-168.2091	-46.6769	485.3676	7.5304	367.0967	-24.6279	122.911	20.1608	337.0865	-0.0592	0.0182	-0.0073	-0.0462	0.0165	0.9585
25.3099	-17.4842	476.1092	37.995	-179.7285	-48.6034	515.7009	6.8474	334.4783	-22.4739	112.1314	18.6712	307.3876	-0.0592	0.0182	-0.0073	-0.0462	0.0165	0.9585
25.3323	-17.6867	504.2911	39.2959	-190.4586	-49.9632	543.3825	6.8732	301.4911	-20.4034	101.2103	16.9742	277.1842	-0.0592	0.0182	-0.0073	-0.0462	0.0165	0.9585
25.3547	-17.4218	530.4402	40.1835	-200.4265	-50.7073	568.4658	7.6696	267.8944	-18.3328	90.0608	14.9698	246.3203	-0.0592	0.0182	-0.0073	-0.0462	0.0165	0.9585
25.3771	-16.6048	554.4174	40.6448	-209.5949	-50.8001	590.8759	9.2189	233.9665	-16.201	78.77	12.6111	215.1084	-0.0592	0.0182	-0.0073	-0.0462	0.0165	0.9585
25.3996	-15.1965	575.9655	40.6494	-217.8807	-50.2049	610.4525	11.3843	200.5145	-13.9925	67.6041	9.9364	184.3318	-0.0592	0.0182	-0.0073	-0.0462	0.0165	0.9585
25.422	-13.2383	594.9064	40.1514	-225.2301	-48.8945	627.143	13.8931	168.7162	-11.7425	56.9567	7.0765	155.1019	-0.0592	0.0182	-0.0073	-0.0462	0.0165	0.9585
25.4444	-10.8592	611.2744	39.1419	-231.6672	-46.908	641.125	16.3571	139.8425	-9.5377	47.2567	4.2482	128.5961	-0.0592	0.0182	-0.0073	-0.0462	0.0165	0.9585
25.4669	-8.2384	625.3282	37.6972	-237.2922	-44.3856	652.7967	18.3406	114.9631	-7.51	38.8688	1.7201	105.7926	-0.0592	0.0182	-0.0073	-0.0462	0.0165	0.9585
